<svg version="1.1" id="Layer_1" xmlns="http://www.w3.org/2000/svg" xmlns:xlink="http://www.w3.org/1999/xlink" x="0px" y="0px"
	 viewBox="0 0 64 64" style="enable-background:new 0 0 64 64;" xml:space="preserve">

<path class="svglogo_color" d="M46.2,33.5C46.1,33.5,46.1,33.5,46.2,33.5l-3.9,0c0,0.3,0,0.6,0,0.9c0,5.6-4.6,10.2-10.2,10.2
	c-5.6,0-10.2-4.6-10.2-10.2c0-0.3,0-0.6,0-0.9h-3.7c0,0-0.1,0-0.1,0v0h-0.4c0,0.3,0,0.6,0,0.9c0,8,6.5,14.4,14.4,14.4
	c8,0,14.4-6.5,14.4-14.4c0-0.3,0-0.6,0-0.9L46.2,33.5L46.2,33.5z"/>
<path class="svglogo_color" d="M54.3,33.5v3.6L49.3,38l-0.4,1.3c-0.4,1.3-0.9,2.5-1.5,3.7l-0.6,1.2l2.9,4.2L45.9,52l-4.2-3l-1.2,0.6
	c-1.2,0.7-2.5,1.2-3.7,1.5l-1.3,0.4l-0.9,5h-5.3l-0.8-5l-1.3-0.4c-1.3-0.4-2.6-0.9-3.8-1.6l-1.2-0.7L18.3,52l-3.7-3.7l2.9-4.1
	L16.8,43c-0.7-1.2-1.2-2.5-1.6-3.8l-0.4-1.3L9.9,37v-3.5H6.2c-0.2,0-0.3,0-0.5-0.1v4c0,1.8,1.3,3.3,3.1,3.6l2.8,0.5
	c0.3,0.8,0.6,1.5,0.9,2.3l-1.7,2.3c-1,1.4-0.8,3.5,0.4,4.7l4.4,4.4c1.3,1.2,3.3,1.4,4.7,0.4l2.3-1.6c0.7,0.4,1.5,0.7,2.2,0.9
	l0.5,2.9c0.3,1.7,1.9,3.1,3.6,3.1h6.2c1.8,0,3.3-1.3,3.6-3.1l0.5-2.9c0.7-0.3,1.5-0.6,2.2-0.9l2.4,1.7c1.4,1,3.5,0.9,4.7-0.4L53,51
	c1.2-1.3,1.4-3.3,0.4-4.7l-1.7-2.4c0.3-0.7,0.6-1.4,0.9-2.1l3-0.5c1.7-0.3,3.1-1.9,3.1-3.6v-4.1c-0.2,0-0.3,0.1-0.5,0.1H54.3z"/>
<path class="svglogo_color" d="M42.8,24.8c-1.1-0.4-2.6-1-4.4-2.5c-0.2-0.2-0.5-0.4-0.7-0.5c-0.2-0.1-0.4-0.1-0.6,0c-1.6,1.2-3.3,1.9-5,1.9
	c-1.7,0-3.4-0.7-5-1.9c-0.2-0.1-0.4-0.2-0.6,0c-0.2,0.2-0.5,0.3-0.7,0.5c-1.9,1.6-3.4,2.2-4.6,2.6c-2.5,0.9-3.4,0.6-3.6,6.3
	c0,0.2,0.1,0.4,0.2,0.5c0.1,0.1,0.2,0.1,0.3,0.1h27.9c0.1,0,0.1,0,0.2,0c0.2-0.1,0.4-0.3,0.4-0.5C46.5,25.4,45.5,25.8,42.8,24.8z"/>
<path class="svglogo_color" d="M32.1,3.4c-5.2,0-7.5,5-7,9.9c0.2,1.6,0.6,3.2,1.4,4.5c0.6,1,1.3,1.9,2.2,2.6c0.2,0.2,0.5,0.3,0.7,0.5
	c1,0.6,1.8,0.9,2.7,0.9c0.9,0,1.7-0.3,2.7-0.9c0.2-0.1,0.5-0.3,0.7-0.5c0.9-0.7,1.6-1.6,2.2-2.6c0.9-1.5,1.4-3.3,1.5-5.1
	C39.5,8.1,37.1,3.4,32.1,3.4z"/>
<path class="svglogo_color" d="M23.5,14.4c-0.4-2-0.3-4.1,0.2-5.9C22.7,7,21.1,6,18.9,6c-5.4,0-7.2,5.7-6.1,10.4c0.4,1.5,1,2.9,1.9,4
	c0.5,0.6,1,1.1,1.7,1.5c1.7,1.1,3.1,1.1,4.9,0c1.2-0.7,2.1-1.8,2.8-3.1c0.2-0.3,0.3-0.6,0.4-1C24.1,16.8,23.7,15.6,23.5,14.4z"/>
<path class="svglogo_color" d="M45.4,6c-2.2,0-3.8,1-4.9,2.5c0.5,1.8,0.6,4,0.2,6c-0.2,1.1-0.5,2.3-1,3.3c0.1,0.4,0.3,0.7,0.5,1.1
	c0.7,1.2,1.6,2.3,2.8,3c1.8,1.1,3.2,1.1,4.9,0c0.6-0.4,1.2-0.9,1.7-1.5c0.9-1.1,1.6-2.5,1.9-4C52.6,11.7,50.8,6,45.4,6z"/>
<path class="svglogo_color" d="M17.2,24.2c-1-0.3-1.9-0.8-2.9-1.5c-0.2-0.1-0.4-0.1-0.6,0c-0.2,0.1-0.4,0.3-0.7,0.5c-0.4,0.3-0.8,0.6-1.2,0.9
	c-4.6,3.1-6,0.1-6.2,7c0,0.1,0,0.2,0,0.3v0c0,0.3,0.2,0.5,0.5,0.5h9.7c0-0.2-0.1-0.4-0.1-0.6c0.1-2.2,0.2-3.6,0.5-4.6
	c0.1-0.4,0.3-0.7,0.4-1c0.2-0.3,0.4-0.6,0.6-0.8c0.1-0.1,0.3-0.3,0.4-0.4C17.7,24.3,17.4,24.3,17.2,24.2z"/>
<path class="svglogo_color" d="M52.4,24.1c-0.4-0.3-0.8-0.6-1.3-1c-0.2-0.2-0.4-0.3-0.7-0.5c-0.2-0.1-0.4-0.1-0.6,0c-0.9,0.7-1.8,1.2-2.7,1.4
	c-0.3,0.1-0.6,0.1-0.8,0.2c0.1,0.1,0.3,0.2,0.4,0.4c0.2,0.2,0.4,0.5,0.6,0.8c0.3,0.4,0.4,1,0.6,1.6c0.2,1,0.3,2.2,0.4,4
	c0,0.2,0,0.4-0.1,0.6H58c0.3,0,0.5-0.2,0.5-0.4c0,0,0,0,0,0C58.4,24.1,57,27.2,52.4,24.1z"/>
</svg>